<mxfile host="app.diagrams.net" agent="Mozilla/5.0 (Macintosh; Intel Mac OS X 10_15_7) AppleWebKit/537.36 (KHTML, like Gecko) Chrome/138.0.0.0 Safari/537.36" version="28.0.6">
  <diagram name="Page-1" id="iGwTtsz1N0U7l0lq2Oun">
    <mxGraphModel dx="1027" dy="582" grid="1" gridSize="10" guides="1" tooltips="1" connect="1" arrows="1" fold="1" page="1" pageScale="1" pageWidth="827" pageHeight="1169" math="0" shadow="0">
      <root>
        <mxCell id="0" />
        <mxCell id="1" parent="0" />
        <mxCell id="2" value="사용자" style="swimlane" parent="1" vertex="1">
          <mxGeometry width="200" height="600" as="geometry" />
        </mxCell>
        <mxCell id="4" value="1. 전원 ON" style="rounded=1;whiteSpace=wrap;html=1;" parent="2" vertex="1">
          <mxGeometry x="20" y="40" width="160" height="40" as="geometry" />
        </mxCell>
        <mxCell id="5" value="2. 카메라 세팅" style="rounded=1;whiteSpace=wrap;html=1;" parent="2" vertex="1">
          <mxGeometry x="20" y="100" width="160" height="40" as="geometry" />
        </mxCell>
        <mxCell id="6" value="3. 시작 버튼 클릭" style="rounded=1;whiteSpace=wrap;html=1;" parent="2" vertex="1">
          <mxGeometry x="20" y="160" width="160" height="40" as="geometry" />
        </mxCell>
        <mxCell id="10" value="종료 버튼 클릭" style="rounded=1;whiteSpace=wrap;html=1;" parent="2" vertex="1">
          <mxGeometry x="20" y="440" width="160" height="40" as="geometry" />
        </mxCell>
        <mxCell id="3" value="시스템" style="swimlane" parent="1" vertex="1">
          <mxGeometry x="200" width="400" height="600" as="geometry">
            <mxRectangle x="200" width="70" height="30" as="alternateBounds" />
          </mxGeometry>
        </mxCell>
        <mxCell id="7" value="LCD에 시간 표시 + AI 분석 시작" style="rounded=1;whiteSpace=wrap;html=1;" parent="3" vertex="1">
          <mxGeometry x="220" y="160" width="160" height="60" as="geometry" />
        </mxCell>
        <mxCell id="8" value="집중 상태 분석 &amp; 판단" style="rounded=1;whiteSpace=wrap;html=1;" parent="3" vertex="1">
          <mxGeometry x="220" y="240" width="160" height="60" as="geometry" />
        </mxCell>
        <mxCell id="9" value="딴짓 지속시 경고 후 일시정지" style="rounded=1;whiteSpace=wrap;html=1;" parent="3" vertex="1">
          <mxGeometry x="220" y="320" width="160" height="60" as="geometry" />
        </mxCell>
        <mxCell id="11" value="총 집중 시간 출력 후 종료" style="rounded=1;whiteSpace=wrap;html=1;" parent="3" vertex="1">
          <mxGeometry x="220" y="440" width="160" height="60" as="geometry" />
        </mxCell>
      </root>
    </mxGraphModel>
  </diagram>
</mxfile>
